<svg width="761" height="540" viewBox="0 0 761 540" fill="none" xmlns="http://www.w3.org/2000/svg">
<g clip-path="url(#clip0_4_487)">
<path opacity="0.1" d="M253.169 539.197C290.18 539.197 320.184 534.372 320.184 528.42C320.184 522.469 290.18 517.644 253.169 517.644C216.157 517.644 186.153 522.469 186.153 528.42C186.153 534.372 216.157 539.197 253.169 539.197Z" fill="#415A77"/>
<path opacity="0.1" d="M617.453 539.5C663.638 539.5 701.078 534.675 701.078 528.723C701.078 522.772 663.638 517.947 617.453 517.947C571.269 517.947 533.829 522.772 533.829 528.723C533.829 534.675 571.269 539.5 617.453 539.5Z" fill="#415A77"/>
<path opacity="0.1" d="M10.0186 233.387H79.8191V328.642H15.1286C14.9567 329.62 14.7916 330.604 14.6128 331.589H79.8191V408.41C79.7022 408.376 79.599 408.334 79.489 408.293C77.6458 407.563 75.8163 406.792 73.9869 405.965L72.8177 405.435C70.9837 404.568 69.1497 403.649 67.3157 402.681C66.676 402.343 66.0364 401.992 65.4037 401.634C55.222 395.924 45.9725 388.688 37.9759 380.177C37.7421 379.95 37.522 379.709 37.2882 379.488C36.174 378.277 35.0804 377.051 34.0213 375.798L32.8521 374.42C31.6004 372.885 30.3899 371.308 29.2139 369.71C29.0419 369.476 28.8769 369.242 28.6981 369.022C23.915 362.382 19.9436 355.192 16.8686 347.606C16.7723 347.379 16.6898 347.131 16.6004 346.917C15.6559 344.484 14.8191 342.028 14.0901 339.549C13.7737 338.509 13.4711 337.483 13.2097 336.402C13.1135 336.086 13.0309 335.776 12.9553 335.466C9.04881 320.199 8.58801 304.341 8.58801 288.592C8.58801 286.754 8.58801 284.908 8.58801 283.084C8.58801 276.714 8.66367 270.303 8.77371 263.899C8.77371 262.239 8.84248 260.587 8.87687 258.92C8.97316 254.692 9.11071 250.464 9.28953 246.236C9.33079 245.059 9.38581 243.888 9.44771 242.717C9.44771 242.043 9.4821 241.368 9.55087 240.693C9.71594 238.241 9.85349 235.811 10.0186 233.387Z" fill="#415A77"/>
<path opacity="0.1" d="M79.8191 127.328H41.5316C47.7555 117.574 54.5557 108.201 61.8961 99.26C67.5839 92.2637 73.588 85.4465 79.8191 78.8772V127.328Z" fill="#415A77"/>
<path opacity="0.1" d="M79.8191 130.275V230.44H10.2386C10.2386 230.15 10.2868 229.854 10.3074 229.565C10.3693 228.773 10.4312 227.981 10.5 227.196C10.5756 226.273 10.6582 225.344 10.7476 224.442C10.837 223.54 10.9333 222.438 11.0364 221.439C11.1396 220.441 11.2359 219.429 11.3528 218.43C11.4697 217.432 11.5729 216.433 11.6967 215.442C11.8205 214.45 11.9305 213.445 12.0612 212.453C12.1644 211.627 12.2744 210.807 12.3844 209.981C12.5426 208.817 12.7077 207.647 12.8865 206.49C12.8865 206.318 12.9347 206.139 12.9622 205.973C14.2175 197.505 15.9279 189.11 18.086 180.825C20.345 172.135 23.2296 163.62 26.7173 155.347C30.4241 146.692 34.7642 138.324 39.7022 130.309L79.8191 130.275Z" fill="#415A77"/>
<path opacity="0.1" d="M96.4835 233.38V328.642H245.569V233.38H96.4835ZM96.4835 331.582V413.389C97.3363 413.568 98.1822 413.74 99.0213 413.884C100.163 414.105 101.298 414.304 102.46 414.477C102.68 414.511 102.907 414.545 103.148 414.566C103.602 414.642 104.069 414.704 104.523 414.766C105.672 414.924 106.814 415.055 107.962 415.158C108.505 415.213 109.056 415.262 109.606 415.303L110.933 415.406C111.655 415.461 112.371 415.503 113.079 415.523C113.519 415.523 113.959 415.565 114.413 415.578C114.757 415.578 115.101 415.578 115.459 415.578C115.816 415.578 116.325 415.578 116.759 415.578C117.35 415.578 117.942 415.578 118.526 415.578H119.317C119.908 415.578 120.5 415.578 121.085 415.523H121.126C121.532 415.523 121.944 415.523 122.357 415.468C122.471 415.475 122.586 415.475 122.701 415.468C123.045 415.468 123.389 415.468 123.719 415.42H123.959L126.263 415.241C127.02 415.172 127.783 415.083 128.554 415L130.122 414.814C136.501 413.919 142.81 412.575 149.001 410.793C162.907 406.909 176.511 401.476 190.411 397.496C208.382 392.365 228.237 389.845 245.603 396.118V331.582H96.4835ZM245.569 127.328V0.506897C229.246 0.32984 212.968 2.24128 197.13 6.19479C159.379 15.6907 125.507 36.2869 96.4835 62.5917V127.321H103.966V130.261H96.4835V230.44H245.569V130.268H134.688V127.328H245.569ZM437.061 84.4894C427.721 84.1588 418.437 81.1978 410.039 76.6255C393.98 67.8802 381.153 54.3766 366.82 42.9802C337.041 19.2439 300.108 4.92087 262.219 1.36766V127.328H475.046L475.576 126.77L437.061 84.4894ZM456.449 81.0463L477.006 103.633V75.1243C470.122 75.9782 464.09 78.0096 456.477 81.0188L456.449 81.0463ZM477.006 433.702V331.582H433.203C433.086 331.148 432.969 330.708 432.831 330.267C432.962 330.708 433.072 331.148 433.196 331.582H262.247V405.435C263.87 406.64 265.472 407.907 267.061 409.195C268.774 410.572 270.466 412.025 272.164 413.451L273.877 414.869C274.695 415.558 275.521 416.246 276.353 416.894C278.003 418.234 279.67 419.556 281.353 420.86C282.185 421.549 283.038 422.168 283.884 422.816C297.314 433.096 311.481 442.374 326.27 450.573C329.585 452.41 332.93 454.202 336.305 455.951C338.554 457.101 340.816 458.244 343.086 459.353C346.497 461.02 349.936 462.626 353.402 464.173C385.36 478.537 419.153 488.393 453.815 493.46C461.513 494.598 469.241 495.493 476.999 496.145V433.696H477.687L477.006 433.702ZM262.247 130.268V230.44H477.034V130.268H262.247ZM262.247 233.38V328.642H477.034V233.38H262.247ZM493.705 75.0004V106.8L519.943 77.9752C511.25 76.5704 502.504 75.5673 493.705 74.9659V75.0004ZM493.705 233.414V328.642H702.611V233.38L493.705 233.414ZM701.848 441.263L702.584 331.582H493.705V497.24C507.161 497.806 520.638 497.645 534.076 496.758H534.31C540.729 496.354 547.118 495.767 553.478 494.995H553.622C587.55 491.042 620.725 482.179 652.109 468.684M742.893 249.066C742.109 247.214 741.291 245.375 740.459 243.558C738.904 240.114 737.261 236.768 735.569 233.421H719.269V328.642H760.479C760.459 301.676 753.643 274.132 742.914 249.032L742.893 249.066ZM719.269 331.617V425.956C730.878 414.814 740.686 402.068 747.749 387.497C756.243 369.951 760.129 350.953 760.445 331.603L719.269 331.617ZM719.269 205.657V230.446H734.042C729.573 221.913 724.648 213.626 719.289 205.622L719.269 205.657ZM577.591 93.6892C576.504 93.276 575.417 92.8559 574.324 92.4497C562.791 88.1853 551.005 84.6391 539.035 81.8314L498.884 125.95L498.113 126.77L498.629 127.334H641.532C621.629 113.618 600.173 102.312 577.611 93.6547L577.591 93.6892ZM645.72 130.302H496.635L493.705 132.988V230.44H519.386H519.427H702.639V183.236C686.065 163.167 666.936 145.359 645.741 130.268L645.72 130.302Z" fill="#415A77"/>
<path opacity="0.1" d="M79.8191 180.798V230.44H10.2386C10.2386 230.15 10.2868 229.854 10.3074 229.565C10.3693 228.773 10.4312 227.981 10.5 227.196C10.5756 226.273 10.6582 225.344 10.7476 224.442C10.837 223.54 10.9333 222.438 11.0364 221.439C11.1396 220.441 11.2359 219.429 11.3528 218.43C11.4697 217.432 11.5729 216.433 11.6967 215.442C11.8205 214.45 11.9305 213.445 12.0612 212.453C12.1644 211.627 12.2744 210.807 12.3844 209.981C12.5426 208.817 12.7077 207.647 12.8865 206.49C12.8865 206.318 12.9347 206.139 12.9622 205.973C14.2175 197.505 15.9279 189.11 18.086 180.825L79.8191 180.798Z" fill="#415A77"/>
<path opacity="0.1" d="M10.0186 233.387H79.8191V328.642H15.1286C14.9567 329.62 14.7916 330.604 14.6128 331.589H79.8191V408.41C79.7022 408.376 79.599 408.334 79.489 408.293C77.6458 407.563 75.8163 406.792 73.9869 405.965L72.8177 405.435C70.9837 404.568 69.1497 403.649 67.3157 402.681C66.676 402.343 66.0364 401.992 65.4037 401.634C55.222 395.924 45.9725 388.688 37.9759 380.177C37.7421 379.95 37.522 379.709 37.2882 379.488C36.174 378.277 35.0804 377.051 34.0213 375.798L32.8521 374.42C31.6004 372.885 30.3899 371.308 29.2139 369.71C29.0419 369.476 28.8769 369.242 28.6981 369.022C23.915 362.382 19.9436 355.192 16.8686 347.606C16.7723 347.379 16.6898 347.131 16.6004 346.917C15.6559 344.484 14.8191 342.028 14.0901 339.549C13.7737 338.509 13.4711 337.483 13.2097 336.402C13.1135 336.086 13.0309 335.776 12.9553 335.466C9.04881 320.199 8.58801 304.341 8.58801 288.592C8.58801 286.754 8.58801 284.908 8.58801 283.084C8.58801 276.714 8.66367 270.303 8.77371 263.899C8.77371 262.239 8.84248 260.587 8.87687 258.92C8.97316 254.692 9.11071 250.464 9.28953 246.236C9.33079 245.059 9.38581 243.888 9.44771 242.717C9.44771 242.043 9.4821 241.368 9.55087 240.693C9.71594 238.241 9.85349 235.811 10.0186 233.387Z" fill="#415A77"/>
<path opacity="0.1" d="M148.966 144.612V230.44H96.4835V144.612H103.966V115.552H134.682V144.612H148.966Z" fill="#415A77"/>
<path opacity="0.1" d="M148.966 233.38H96.4904V328.635H148.966V233.38Z" fill="#415A77"/>
<path opacity="0.1" d="M96.4835 331.589H148.966V410.779C142.775 412.56 136.467 413.901 130.087 414.793L128.519 414.986C127.749 415.076 126.986 415.151 126.229 415.227C125.472 415.303 124.688 415.358 123.925 415.406H123.684C123.354 415.406 122.997 415.448 122.673 415.454H122.323C121.91 415.454 121.497 415.496 121.085 415.509C120.5 415.544 119.915 415.551 119.317 415.558C119.063 415.558 118.822 415.558 118.567 415.558C117.976 415.558 117.391 415.558 116.8 415.558H115.5C115.149 415.558 114.812 415.558 114.448 415.558L113.12 415.509C112.433 415.509 111.69 415.434 110.975 415.386L109.654 415.289L108.01 415.138C106.855 415.034 105.706 414.904 104.571 414.745L103.196 414.552L102.508 414.456C101.36 414.277 100.225 414.084 99.0694 413.864C98.2235 413.719 97.3844 413.54 96.5316 413.368L96.4835 331.589Z" fill="#415A77"/>
<path opacity="0.1" d="M477.034 134.475H433.76V230.433H477.034V134.475Z" fill="#415A77"/>
<path opacity="0.1" d="M477.041 233.38V328.642H262.247V287.553H376.655V311.792H433.76V233.38H477.041Z" fill="#415A77"/>
<path opacity="0.1" d="M477.721 433.723H477.034V496.214C469.285 495.558 461.559 494.665 453.856 493.536C419.177 488.452 385.37 478.575 353.402 464.187C344.173 460.028 335.131 455.488 326.277 450.566C311.488 442.363 297.319 433.086 283.884 422.809C280.509 420.22 277.178 417.571 273.891 414.862C271.614 412.982 269.351 411.054 267.061 409.181C265.473 407.893 263.87 406.626 262.247 405.415V331.589H433.189C433.072 331.148 432.955 330.708 432.831 330.274C432.962 330.708 433.086 331.148 433.203 331.589H477.034V433.682C477.268 433.689 477.494 433.709 477.721 433.723Z" fill="#415A77"/>
<path opacity="0.1" d="M589.895 127.328H561.697V118.555H574.338V92.4221C575.433 92.8215 576.525 93.2324 577.611 93.6547V118.555H589.895V127.328Z" fill="#415A77"/>
<path opacity="0.1" d="M657.831 230.44H519.4C519.4 230.44 519.4 230.44 519.448 230.474L519.386 230.44H493.705V134.482H500.981V205.409H534.234V163.404H561.704V130.275H589.902V163.431H617.371V205.436H657.831V230.44Z" fill="#415A77"/>
<path opacity="0.1" d="M493.705 233.38V328.642H657.831V233.38H493.705ZM702.384 440.774L702.611 365.372H657.831V331.63H493.705V497.24C507.161 497.806 520.638 497.645 534.076 496.758H534.31C540.729 496.354 547.119 495.767 553.478 494.995H553.622C587.55 491.042 620.725 482.179 652.109 468.684" fill="#415A77"/>
<path opacity="0.1" d="M722.185 331.589H760.472C760.135 350.932 756.257 369.931 747.77 387.476C740.706 402.054 730.892 414.8 719.296 425.935V365.338H722.185V331.589Z" fill="#415A77"/>
<path opacity="0.1" d="M760.493 328.642H722.185V249.032H742.914C753.643 274.132 760.459 301.676 760.493 328.642Z" fill="#415A77"/>
<path opacity="0.1" d="M477.041 161.152H453.856V191.237H477.041V161.152Z" fill="#415A77"/>
<path opacity="0.1" d="M477.041 223.512H453.856V230.44H477.041V223.512Z" fill="#415A77"/>
<path opacity="0.1" d="M477.041 233.38H453.856V253.591H477.041V233.38Z" fill="#415A77"/>
<path opacity="0.1" d="M477.041 285.872H453.856V315.958H477.041V285.872Z" fill="#415A77"/>
<path opacity="0.1" d="M477.041 348.233H453.856V378.318H477.041V348.233Z" fill="#415A77"/>
<path opacity="0.1" d="M477.034 433.682C477.268 433.682 477.494 433.682 477.721 433.723H477.034V440.712H453.856V410.593H477.034V433.682Z" fill="#415A77"/>
<path opacity="0.1" d="M477.034 472.939V496.18C469.285 495.523 461.559 494.63 453.856 493.501V472.939H477.034Z" fill="#415A77"/>
<path opacity="0.1" d="M361.607 326.431H262.247V328.642H361.607V326.431Z" fill="#415A77"/>
<path opacity="0.1" d="M361.607 331.582H262.247V340.052H361.607V331.582Z" fill="#415A77"/>
<path opacity="0.1" d="M361.607 367.817H262.247V381.437H361.607V367.817Z" fill="#415A77"/>
<path opacity="0.1" d="M361.6 409.202V422.822H283.884C280.509 420.242 277.176 417.594 273.884 414.876C271.607 412.996 269.351 411.068 267.054 409.202H361.6Z" fill="#415A77"/>
<path opacity="0.1" d="M361.6 450.58V464.187H353.395C344.175 460.023 335.135 455.481 326.277 450.56L361.6 450.58Z" fill="#415A77"/>
<path opacity="0.1" d="M553.643 242.614H534.083V262.198H553.643V242.614Z" fill="#415A77"/>
<path opacity="0.1" d="M130.136 151.367H110.576V170.951H130.136V151.367Z" fill="#415A77"/>
<path opacity="0.1" d="M130.136 196.856H110.576V216.44H130.136V196.856Z" fill="#415A77"/>
<path opacity="0.1" d="M130.136 242.346H110.576V261.93H130.136V242.346Z" fill="#415A77"/>
<path opacity="0.1" d="M130.136 287.828H110.576V307.412H130.136V287.828Z" fill="#415A77"/>
<path opacity="0.1" d="M130.136 333.317H110.576V352.901H130.136V333.317Z" fill="#415A77"/>
<path opacity="0.1" d="M130.136 378.807H110.576V398.391H130.136V378.807Z" fill="#415A77"/>
<path opacity="0.1" d="M628.313 242.614H608.753V262.198H628.313V242.614Z" fill="#415A77"/>
<path opacity="0.1" d="M553.643 290.92H534.083V310.504H553.643V290.92Z" fill="#415A77"/>
<path opacity="0.1" d="M628.313 290.92H608.753V310.504H628.313V290.92Z" fill="#415A77"/>
<path opacity="0.1" d="M553.643 339.219H534.083V358.803H553.643V339.219Z" fill="#415A77"/>
<path opacity="0.1" d="M628.313 339.219H608.753V358.803H628.313V339.219Z" fill="#415A77"/>
<path opacity="0.1" d="M553.643 387.524H534.083V407.108H553.643V387.524Z" fill="#415A77"/>
<path opacity="0.1" d="M628.313 387.524H608.753V407.108H628.313V387.524Z" fill="#415A77"/>
<path opacity="0.1" d="M553.643 435.83H534.083V455.414H553.643V435.83Z" fill="#415A77"/>
<path opacity="0.1" d="M628.313 435.83H608.753V455.414H628.313V435.83Z" fill="#415A77"/>
<path opacity="0.1" d="M534.083 496.758V484.129H553.636V494.961L534.083 496.758Z" fill="#415A77"/>
<path opacity="0.1" d="M12.8796 205.96V217.163H79.8191V205.96H12.8796ZM19.5509 216.461H14.0901V206.648H19.5922L19.5509 216.461ZM26.2153 216.461H20.7132V206.648H26.2153V216.461ZM32.8659 216.461H27.3638V206.648H32.8659V216.461ZM39.5303 216.461H34.0351V206.648H39.5371L39.5303 216.461ZM46.1878 216.461H40.6857V206.648H46.1878V216.461ZM52.8521 216.461H47.3501V206.648H52.8521V216.461ZM59.5165 216.461H54.0144V206.648H59.5165V216.461ZM66.174 216.461H60.6719V206.648H66.174V216.461ZM72.8315 216.461H67.3294V206.648H72.8315V216.461ZM79.489 216.461H73.9869V206.648H79.489V216.461Z" fill="#415A77"/>
<path opacity="0.1" d="M12.8796 238.558V249.762H79.8191V238.558H12.8796ZM19.5509 249.053H14.0901V239.267H19.5922L19.5509 249.053ZM26.2153 249.053H20.7132V239.267H26.2153V249.053ZM32.8659 249.053H27.3638V239.267H32.8659V249.053ZM39.5303 249.053H34.0351V239.267H39.5371L39.5303 249.053ZM46.1878 249.053H40.6857V239.267H46.1878V249.053ZM52.8521 249.053H47.3501V239.267H52.8521V249.053ZM59.5165 249.053H54.0144V239.267H59.5165V249.053ZM66.174 249.053H60.6719V239.267H66.174V249.053ZM72.8315 249.053H67.3294V239.267H72.8315V249.053ZM79.489 249.053H73.9869V239.267H79.489V249.053Z" fill="#415A77"/>
<path opacity="0.1" d="M12.8796 271.171V282.395H79.8191V271.171H12.8796ZM19.5509 281.665H14.0901V271.873H19.5922L19.5509 281.665ZM26.2153 281.665H20.7132V271.873H26.2153V281.665ZM32.8659 281.665H27.3638V271.873H32.8659V281.665ZM39.5303 281.665H34.0351V271.873H39.5371L39.5303 281.665ZM46.1878 281.665H40.6857V271.873H46.1878V281.665ZM52.8521 281.665H47.3501V271.873H52.8521V281.665ZM59.5165 281.665H54.0144V271.873H59.5165V281.665ZM66.174 281.665H60.6719V271.873H66.174V281.665ZM72.8315 281.665H67.3294V271.873H72.8315V281.665ZM79.489 281.665H73.9869V271.873H79.489V281.665Z" fill="#415A77"/>
<path opacity="0.1" d="M12.8796 303.783V314.973H79.8191V303.783H12.8796ZM19.5509 314.277H14.0901V304.479H19.5922L19.5509 314.277ZM26.2153 314.277H20.7132V304.479H26.2153V314.277ZM32.8659 314.277H27.3638V304.479H32.8659V314.277ZM39.5303 314.277H34.0351V304.479H39.5371L39.5303 314.277ZM46.1878 314.277H40.6857V304.479H46.1878V314.277ZM52.8521 314.277H47.3501V304.479H52.8521V314.277ZM59.5165 314.277H54.0144V304.479H59.5165V314.277ZM66.174 314.277H60.6719V304.479H66.174V314.277ZM72.8315 314.277H67.3294V304.479H72.8315V314.277ZM79.489 314.277H73.9869V304.479H79.489V314.277Z" fill="#415A77"/>
<path opacity="0.1" d="M13.1685 336.389C13.4367 337.442 13.7394 338.496 14.0557 339.535V337.091H19.5578V346.883H16.6142C16.7036 347.11 16.793 347.358 16.8824 347.572H79.8191V336.389H13.1685ZM26.2359 346.883H20.7339V337.091H26.2359V346.883ZM32.8865 346.883H27.3845V337.091H32.8865V346.883ZM39.5509 346.883H34.0351V337.091H39.5372L39.5509 346.883ZM46.2084 346.883H40.7063V337.091H46.2084V346.883ZM52.8728 346.883H47.3707V337.091H52.8728V346.883ZM59.5372 346.883H54.0351V337.091H59.5372V346.883ZM66.1946 346.883H60.6926V337.091H66.1946V346.883ZM72.8521 346.883H67.3501V337.091H72.8521V346.883ZM79.5096 346.883H74.0076V337.091H79.5096V346.883Z" fill="#415A77"/>
<path opacity="0.1" d="M28.7119 369.001C28.8838 369.221 29.0489 369.469 29.2277 369.69H32.8659V374.393C33.2579 374.861 33.6431 375.329 34.042 375.77V369.662H39.544V379.488H37.3157C37.5358 379.716 37.749 379.957 38.0035 380.177H79.8398V369.001H28.7119ZM46.1878 379.488H40.6857V369.703H46.1878V379.488ZM52.8522 379.488H47.3501V369.703H52.8522V379.488ZM59.5165 379.488H54.0145V369.703H59.5165V379.488ZM66.174 379.488H60.672V369.703H66.174V379.488ZM72.8315 379.488H67.3295V369.703H72.8315V379.488ZM79.489 379.488H73.987V369.703H79.489V379.488Z" fill="#415A77"/>
<path opacity="0.1" d="M65.4312 401.607C66.0571 401.965 66.6967 402.295 67.3432 402.653V402.309H72.8452V405.408L74.0144 405.952V402.309H79.5165V408.265C79.622 408.318 79.7326 408.359 79.8466 408.389V401.607H65.4312Z" fill="#415A77"/>
<path opacity="0.1" d="M432.831 330.267C432.962 330.708 433.072 331.148 433.196 331.582C433.086 331.148 432.969 330.708 432.831 330.267ZM103.994 127.307V130.247H134.716V127.307H103.994ZM432.831 330.267C432.962 330.708 433.072 331.148 433.196 331.582C433.086 331.148 432.969 330.708 432.831 330.267ZM432.831 330.267C432.962 330.708 433.072 331.148 433.196 331.582C433.086 331.148 432.969 330.708 432.831 330.267Z" fill="#415A77"/>
<path d="M317.969 261.943C317.969 261.943 315.259 261.565 315.259 257.612C315.259 253.659 313.32 246.277 313.32 246.277C313.32 246.243 311.642 233.421 309.324 231.383C307.006 229.345 304.028 217.377 304.028 217.377C304.028 217.377 303.519 210.883 302.481 209.485C301.442 208.087 300.039 204.665 297.969 199.783C295.899 194.901 287.268 191.519 287.268 191.519C287.268 191.519 271.662 182.457 267.24 179.503C266.838 179.261 266.462 178.977 266.119 178.656C265.349 177.644 261.992 177.623 261.992 177.623C261.642 175.406 261.305 172.858 261.195 170.551C261.195 170.304 261.195 170.056 261.16 169.808C266.091 166.889 269.806 162.288 271.621 156.848C271.704 156.586 271.772 156.311 271.848 156.049C272.143 155.952 272.415 155.794 272.646 155.585C272.877 155.376 273.062 155.122 273.189 154.837C273.588 153.949 273.595 152.909 274.09 152.083C274.668 151.105 275.768 150.582 276.635 149.845C278.822 147.986 279.386 144.853 279.283 142.002C279.214 139.695 278.843 137.367 278.987 135.074L279.028 134.496C279.069 134.152 279.118 133.807 279.18 133.477C279.517 131.769 280.252 130.158 280.665 128.464C281.078 126.77 281.119 124.862 280.156 123.403C278.746 121.261 275.81 120.834 273.23 120.614C270.307 120.366 267.694 120.689 265.823 118.259C264.948 116.988 263.963 115.797 262.88 114.699C262.494 114.34 258.753 112.054 258.753 111.903C255.101 110.209 250.962 109.892 247.096 111.008C245.156 111.572 243.327 112.495 241.36 112.956C237.116 113.962 232.233 112.874 228.629 115.305C226.621 116.682 225.417 118.871 224.29 121.006C223.373 122.764 222.442 124.52 221.497 126.274C219.977 129.159 218.43 132.093 217.79 135.288C217.656 135.983 217.573 136.687 217.543 137.395V137.429C217.543 137.684 217.543 137.939 217.543 138.194V138.517C217.543 138.758 217.543 138.993 217.584 139.206C217.625 139.42 217.618 139.488 217.639 139.633C217.66 139.778 217.694 140.101 217.735 140.322C217.776 140.542 217.859 140.928 217.942 141.231C217.976 141.361 218.024 141.485 218.065 141.609C218.134 141.843 218.217 142.071 218.306 142.298C218.354 142.415 218.402 142.539 218.457 142.656C218.561 142.897 218.684 143.131 218.808 143.345C218.863 143.441 218.904 143.53 218.959 143.62C219.151 143.94 219.363 144.248 219.592 144.543C221.064 146.381 223.23 147.552 224.833 149.273C224.833 149.342 224.833 149.411 224.833 149.473C224.833 149.666 224.833 149.852 224.833 150.045C224.918 153.884 225.939 157.644 227.806 160.999C229.674 164.353 232.331 167.2 235.548 169.291C235.548 169.553 235.583 169.821 235.596 170.083C235.73 172.127 235.705 174.179 235.521 176.219C235.241 175.888 234.89 175.625 234.495 175.449C234.1 175.273 233.67 175.187 233.237 175.2C232.942 175.185 232.646 175.211 232.357 175.275L232.295 175.227V175.289C230.782 175.661 228.918 177.238 227.137 181.721C227.137 181.721 221.717 187.835 217.591 187.581C213.464 187.326 203.017 193.943 203.017 193.943C203.017 193.943 192.825 200.568 190.638 207.316C189.415 211.143 187.949 214.887 186.25 218.527L173.65 244.522L171.325 265.145C171.325 265.145 172.611 274.318 172.357 275.715C172.102 277.113 177.646 289.722 177.646 289.722C177.646 289.722 195.961 321.942 203.444 323.594L203.98 323.216C204.3 323.383 204.64 323.51 204.991 323.594L206.532 322.506C206.624 323.719 206.585 324.938 206.415 326.142C205.383 329.323 206.8 350.085 208.602 354.155C210.404 358.224 209.764 411.584 209.764 411.584L209.51 416.294C209.51 416.294 209.51 416.446 209.572 416.708L209.51 417.823L209.695 417.92C209.888 419.414 209.825 420.93 209.51 422.402C208.863 424.468 208.602 430.308 208.602 430.308C208.602 430.308 203.45 463.278 205.892 469.903C208.334 476.527 210.411 483.785 210.411 483.785C210.411 483.785 212.99 492.048 210.534 493.46C208.079 494.871 201.098 497.24 202.536 500.683C203.843 503.865 208.801 512.39 209.537 513.636L209.475 514.29L208.464 525.26C208.628 526.708 209.02 528.121 209.627 529.446C210.734 531.836 212.887 534.315 216.979 534.046C217.666 533.998 218.464 533.915 219.235 533.812C226.724 532.807 235.947 529.46 235.947 529.46C235.468 529.156 235.029 528.792 234.64 528.379C234.272 528.022 233.98 527.594 233.783 527.12C233.586 526.647 233.486 526.138 233.492 525.625C233.602 523.628 229.867 514.111 228.939 511.77C228.794 511.432 228.719 511.24 228.719 511.24C228.719 511.24 237.233 502.329 235.816 494.431C235.816 494.431 226.394 488.922 229.496 485.899C232.598 482.876 238.141 474.193 238.141 474.193C238.141 474.193 238.395 441.725 238.141 436.877C237.876 433.512 238.035 430.127 238.616 426.803C238.719 426.3 238.843 425.811 238.973 425.329C243.263 425.97 247.593 426.299 251.931 426.314C253.512 426.314 255.122 426.314 256.745 426.217C256.745 426.676 256.765 427.172 256.807 427.705C257.164 435.748 257.832 449.85 258.375 455.091C259.145 462.603 263.402 482.848 263.402 482.848C263.402 482.848 255.28 488.068 264.819 500.931C264.819 500.931 264.819 505.593 264.186 506.268C263.511 508.474 262.967 510.718 262.556 512.989C262.157 515.413 261.992 517.864 262.639 519.138C264.186 522.182 273.471 521.934 273.471 521.934L273.698 521.892C275.451 521.711 277.222 521.88 278.909 522.389C280.597 522.899 282.166 523.739 283.526 524.86C287.054 527.697 300.445 526.451 307.694 525.549C310.534 525.191 312.433 524.86 312.433 524.86C312.525 524.538 312.557 524.202 312.529 523.869C312.453 522.085 311.057 518.174 301.594 514.683C301.594 514.683 292.694 508.692 292.818 503.472H292.632H291.6C292.35 503.431 292.832 503.472 292.832 503.472C292.832 503.472 289.345 490.733 290.768 489.7C292.192 488.667 287.928 474.551 287.928 474.551C287.928 474.551 285.486 450.863 285.356 449.203C285.361 447.779 285.577 446.363 285.995 445.003L285.356 432.015C285.356 432.015 285.232 427.698 285.356 426.293C285.335 425.074 285.236 423.857 285.06 422.65C284.998 422.168 284.936 421.666 284.867 421.17C288.203 420.323 290.369 419.538 290.369 419.538L289.984 374.331C292.818 368.822 293.34 356.737 293.327 348.164C293.327 342.655 293.079 338.578 293.079 338.578L296.951 332.25C296.951 332.25 297.845 324.675 296.428 323.016C295.803 322.265 296.085 321.487 296.6 320.847C296.868 320.634 297.151 320.441 297.446 320.268C297.446 320.268 297.405 320.206 297.357 320.117C297.627 319.891 297.915 319.686 298.217 319.504C298.217 319.504 296.841 317.369 298.072 316.467C299.228 317.252 300.259 317.844 301.043 318.326C300.988 318.829 300.933 319.118 300.933 319.118L301.263 318.43C302.02 318.857 302.481 319.118 302.481 319.118C302.481 319.118 308.547 307.019 308.416 305.236C308.285 303.453 312.543 295.94 312.543 295.94C312.543 295.94 313.058 291.994 315.383 290.341C317.708 288.689 317.185 276.714 317.185 276.714C317.185 276.714 317.832 270.475 319.379 267.927C320.926 265.379 317.969 261.943 317.969 261.943ZM201.903 256.634L202.02 259.519C201.332 258.411 200.837 257.612 200.837 257.612L201.903 256.634Z" fill="url(#paint0_linear_4_487)"/>
<path d="M302.811 313.892L301.325 320.227C301.325 320.227 289.427 314.147 287.281 306.42C285.135 298.694 290.871 295.761 290.871 295.761L301.958 300.464L302.811 313.892Z" fill="white"/>
<path opacity="0.1" d="M302.811 313.892L301.325 320.227C301.325 320.227 289.427 314.147 287.281 306.42C285.135 298.694 290.871 295.761 290.871 295.761L301.958 300.464L302.811 313.892Z" fill="black"/>
<path d="M236.036 529.501C236.036 529.501 225.032 533.55 217.467 534.06C213.45 534.329 211.339 531.863 210.252 529.488C209.659 528.167 209.276 526.761 209.118 525.322L210.101 514.407L210.624 508.595L226.697 504.415L228.973 511.384L229.186 511.914C230.101 514.242 233.767 523.71 233.657 525.687C233.652 526.193 233.75 526.694 233.944 527.162C234.138 527.629 234.424 528.053 234.785 528.407C235.154 528.823 235.574 529.191 236.036 529.501Z" fill="#E0E1DD"/>
<path d="M311.202 523.951C311.229 524.283 311.196 524.616 311.105 524.936C311.105 524.936 287.57 528.868 282.756 524.936C281.398 523.787 279.816 522.935 278.111 522.435C276.405 521.935 274.614 521.797 272.852 522.03C272.852 522.03 263.746 522.278 262.226 519.276C261.594 518.015 261.759 515.571 262.151 513.161C262.551 510.902 263.083 508.67 263.746 506.474L264.111 506.185L266.277 504.443L291.642 503.692H291.834C291.71 508.885 300.445 514.841 300.445 514.841C309.723 518.284 311.091 522.175 311.202 523.951Z" fill="#E0E1DD"/>
<path opacity="0.1" d="M311.202 523.951C311.226 524.283 311.191 524.616 311.098 524.936C311.098 524.936 287.57 528.868 282.756 524.936C281.399 523.788 279.818 522.937 278.114 522.436C276.41 521.936 274.62 521.798 272.859 522.03C272.859 522.03 263.746 522.278 262.233 519.276C261.6 518.009 261.759 515.571 262.151 513.161C265.658 513.512 271.195 514.386 273.368 516.473C276.655 519.647 282.226 522.815 285.644 523.063C288.32 523.235 304.324 523.745 311.202 523.951Z" fill="black"/>
<path opacity="0.1" d="M236.036 529.501C236.036 529.501 225.032 533.55 217.467 534.06C213.45 534.329 211.339 531.863 210.259 529.481C213.058 530.424 216.944 531.416 218.987 530.507C221.408 529.433 229.991 528.737 234.805 528.441C235.172 528.843 235.585 529.199 236.036 529.501Z" fill="black"/>
<path d="M252.364 203.205C243.285 199.673 231.607 188.001 234.523 182.547C235.171 181.171 235.556 179.685 235.658 178.167C235.846 176.107 235.873 174.035 235.741 171.97C235.536 168.588 235.13 165.222 234.523 161.889C234.523 161.889 262.866 162.529 261.215 166.709C260.734 167.935 260.658 170.062 260.789 172.445C260.92 174.828 261.263 177.52 261.621 179.799C262.116 182.926 262.611 185.308 262.611 185.308C262.611 185.308 260.878 187.739 259.86 187.87C258.842 188.001 265.39 208.239 252.364 203.205Z" fill="#CF6F80"/>
<path opacity="0.1" d="M229.166 511.914L228.953 512.149C220.479 501.888 210.232 514.676 210.232 514.676L210.08 514.407L210.603 508.595L226.676 504.415L228.953 511.384L229.166 511.914Z" fill="black"/>
<path opacity="0.1" d="M291.841 504.415C291.841 504.415 285.651 504.285 282.35 507.204C279.049 510.124 263.093 507.838 263.781 507.204C263.984 506.89 264.107 506.531 264.138 506.158L266.305 504.415L291.669 503.665C291.765 504.126 291.841 504.415 291.841 504.415Z" fill="black"/>
<path d="M239.709 423.842C239.248 424.983 238.898 426.166 238.664 427.374C238.09 430.683 237.931 434.051 238.189 437.4C238.444 442.221 238.189 474.523 238.189 474.523C238.189 474.523 232.749 483.138 229.716 486.174C226.683 489.211 235.906 494.665 235.906 494.665C237.281 502.515 228.946 511.384 228.946 511.384C220.473 501.124 210.225 513.918 210.225 513.918C210.225 513.918 204.654 504.278 203.265 500.835C201.876 497.392 208.705 495.009 211.105 493.611C213.506 492.213 210.988 483.971 210.988 483.971C210.988 483.971 208.959 476.747 206.552 470.157C204.145 463.567 209.207 430.762 209.207 430.762C209.207 430.762 209.468 424.936 210.094 422.905C210.41 421.439 210.473 419.93 210.28 418.443C210.239 417.94 210.191 417.52 210.156 417.238C210.122 416.956 210.094 416.825 210.094 416.825L210.191 416.659L213.629 410.242C213.629 410.242 241.36 419.799 239.709 423.842Z" fill="#415A77"/>
<path d="M291.841 503.658C291.841 503.658 285.651 503.527 282.35 506.412C279.049 509.298 263.093 507.046 263.781 506.412C264.468 505.779 264.413 501.09 264.413 501.09C255.053 488.295 263.038 483.103 263.038 483.103C263.038 483.103 258.856 462.961 258.1 455.49C257.57 450.27 256.917 436.243 256.566 428.235C256.415 424.792 256.325 422.423 256.325 422.423L263.973 420.881L264.957 420.681L283.402 416.976C283.402 416.976 283.911 420.419 284.255 423.236C284.427 424.438 284.523 425.65 284.544 426.865C284.42 428.242 284.544 432.553 284.544 432.553L285.17 445.478C284.761 446.833 284.55 448.241 284.544 449.658C284.668 451.303 287.068 474.867 287.068 474.867C287.068 474.867 291.243 488.929 289.819 489.941C288.395 490.953 291.841 503.658 291.841 503.658Z" fill="#415A77"/>
<path opacity="0.1" d="M261.215 166.709C260.734 167.935 260.658 170.062 260.789 172.445C256.992 174.734 252.628 175.904 248.197 175.821C243.767 175.739 239.449 174.406 235.741 171.977C235.537 168.593 235.13 165.224 234.523 161.889C234.523 161.889 262.866 162.515 261.215 166.709Z" fill="black"/>
<path d="M272.171 151.491C272.177 153.972 271.787 156.439 271.016 158.797C269.293 164.081 265.759 168.585 261.04 171.513C256.321 174.441 250.72 175.605 245.227 174.798C239.734 173.991 234.703 171.266 231.023 167.104C227.342 162.943 225.25 157.612 225.115 152.055C225.115 151.863 225.115 151.684 225.115 151.491C225.061 148.363 225.631 145.256 226.789 142.35C227.948 139.445 229.673 136.8 231.863 134.569C234.053 132.338 236.666 130.566 239.547 129.356C242.429 128.147 245.522 127.524 248.646 127.524C251.771 127.524 254.864 128.147 257.746 129.356C260.627 130.566 263.24 132.338 265.43 134.569C267.62 136.8 269.345 139.445 270.504 142.35C271.662 145.256 272.232 148.363 272.178 151.491H272.171Z" fill="#CF6F80"/>
<path opacity="0.1" d="M252.364 203.205C243.285 199.673 231.607 188.001 234.523 182.547C235.171 181.171 235.556 179.685 235.658 178.167L248.086 188.393L255.775 194.708L261.621 179.806C262.116 182.933 262.611 185.315 262.611 185.315C262.611 185.315 260.878 187.746 259.86 187.877C258.842 188.008 265.39 208.239 252.364 203.205Z" fill="black"/>
<path d="M284.503 248.398L274.124 422.96L260.589 423.848L225.541 322.63L231.291 202.461L232.501 177.073L248.086 189.888L255.782 196.202L261.8 180.867L272.99 190.631L284.503 248.398Z" fill="#415A77"/>
<path opacity="0.1" d="M239.709 423.842C239.248 424.983 238.898 426.166 238.664 427.374C228.815 425.852 219.25 422.86 210.287 418.498L210.101 418.402L210.163 417.293L210.197 416.715L213.636 410.297C213.636 410.297 241.36 419.799 239.709 423.842Z" fill="black"/>
<path opacity="0.1" d="M264.131 427.402C261.614 427.83 259.074 428.12 256.525 428.269C256.373 424.826 256.284 422.458 256.284 422.458L263.932 420.915L264.131 427.402Z" fill="black"/>
<path opacity="0.1" d="M284.214 423.27C279.324 424.544 271.772 425.976 265.012 425.081L264.915 420.715L283.361 417.011C283.361 417.011 283.87 420.419 284.214 423.27Z" fill="black"/>
<path opacity="0.1" d="M264.888 425.88C236.69 430.7 210.864 416.88 210.864 416.88L211.112 412.197C211.112 412.197 211.752 359.113 209.977 355.043C208.203 350.973 206.82 330.336 207.825 327.168C208.829 324.001 204.159 276.5 204.159 276.5L203.402 257.219L175.713 245.988L188.093 220.152C189.765 216.529 191.203 212.803 192.398 208.996C194.551 202.289 204.544 195.699 204.544 195.699C204.544 195.699 214.792 189.116 218.842 189.364C222.893 189.612 228.203 183.539 228.203 183.539C232.123 173.533 235.672 178.064 235.672 178.064C235.672 178.539 235.672 178.064 235.479 179.545C234.104 190.528 257.721 225.234 258.058 225.847L260.307 280.701L262.584 350.119L264.888 425.88Z" fill="black"/>
<path d="M264.131 425.88C235.933 430.7 210.101 416.88 210.101 416.88L210.356 412.197C210.356 412.197 210.995 359.113 209.214 355.043C207.433 350.973 206.057 330.336 207.068 327.168C208.079 324.001 203.402 276.5 203.402 276.5L202.639 257.219L174.936 245.947L187.316 220.11C188.984 216.487 190.422 212.761 191.621 208.955C193.767 202.248 203.767 195.658 203.767 195.658C203.767 195.658 214.014 189.075 218.058 189.323C222.102 189.571 227.419 183.497 227.419 183.497C231.346 173.492 235.672 178.023 235.672 178.023C235.672 178.498 235.259 178.711 235.479 179.503C238.505 190.156 256.965 225.192 257.302 225.805L259.578 280.66L261.855 350.078L264.131 425.88Z" fill="white"/>
<path opacity="0.1" d="M256.532 227.368C253.499 226.101 237.433 207.736 237.433 207.736V203.556C236.848 202.179 233.375 203.019 230.555 203.983L231.765 178.594L233.141 179.737C236.153 190.383 256.181 226.755 256.532 227.368Z" fill="black"/>
<path d="M257.295 225.847C254.255 224.579 238.189 206.214 238.189 206.214V202.035C237.605 200.657 234.131 201.497 231.312 202.461L232.529 177.073L233.904 178.216C236.924 188.861 256.958 225.241 257.295 225.847Z" fill="white"/>
<path opacity="0.1" d="M210.864 317.438C211.243 317.438 230.472 315.414 230.472 315.414C230.472 315.414 242.116 338.337 241.353 343.915C240.589 349.493 239.207 354.43 234.523 353.556C229.84 352.681 209.317 354.244 209.317 354.244L210.864 317.438Z" fill="black"/>
<path d="M210.101 315.916C210.479 315.916 229.709 313.892 229.709 313.892C229.709 313.892 241.346 336.822 240.589 342.393C239.833 347.964 238.437 352.908 233.76 352.034C229.083 351.159 208.554 352.722 208.554 352.722L210.101 315.916Z" fill="white"/>
<path d="M224.592 305.153C224.592 305.153 242.24 314.649 242.618 317.548C242.997 320.447 233.636 316.281 231.614 315.779C230.283 315.457 228.929 315.246 227.563 315.145L214.076 315.51L224.592 305.153Z" fill="#CF6F80"/>
<path opacity="0.1" d="M251.607 228.553C252.633 228.553 253.464 227.72 253.464 226.694C253.464 225.667 252.633 224.834 251.607 224.834C250.582 224.834 249.75 225.667 249.75 226.694C249.75 227.72 250.582 228.553 251.607 228.553Z" fill="black"/>
<path d="M251.607 227.795C252.633 227.795 253.464 226.963 253.464 225.936C253.464 224.909 252.633 224.077 251.607 224.077C250.582 224.077 249.75 224.909 249.75 225.936C249.75 226.963 250.582 227.795 251.607 227.795Z" fill="#3F3D56"/>
<path opacity="0.1" d="M255.025 309.037C256.051 309.037 256.882 308.205 256.882 307.178C256.882 306.151 256.051 305.319 255.025 305.319C254 305.319 253.168 306.151 253.168 307.178C253.168 308.205 254 309.037 255.025 309.037Z" fill="black"/>
<path d="M255.025 308.273C256.051 308.273 256.882 307.44 256.882 306.414C256.882 305.387 256.051 304.554 255.025 304.554C254 304.554 253.168 305.387 253.168 306.414C253.168 307.44 254 308.273 255.025 308.273Z" fill="#3F3D56"/>
<path opacity="0.1" d="M253.457 268.795C254.483 268.795 255.314 267.963 255.314 266.936C255.314 265.909 254.483 265.076 253.457 265.076C252.432 265.076 251.6 265.909 251.6 266.936C251.6 267.963 252.432 268.795 253.457 268.795Z" fill="black"/>
<path d="M253.457 268.037C254.483 268.037 255.314 267.205 255.314 266.178C255.314 265.151 254.483 264.319 253.457 264.319C252.432 264.319 251.6 265.151 251.6 266.178C251.6 267.205 252.432 268.037 253.457 268.037Z" fill="#3F3D56"/>
<path d="M296.263 314.759C296.263 314.759 297.529 316.66 296.263 317.548C294.998 318.437 296.387 320.585 296.387 320.585C296.387 320.585 293.23 322.437 294.62 324.104C296.009 325.77 295.129 333.297 295.129 333.297L291.332 339.591C291.332 339.591 291.559 343.646 291.573 349.128C291.573 357.68 291.071 369.703 288.292 375.185L288.677 420.158C288.677 420.158 275.383 425.019 264.255 423.539L262.605 351.373C262.605 351.373 265.012 310.449 265.899 302.599C266.418 298.523 266.63 294.414 266.532 290.307C266.532 290.307 266.153 278.022 264.881 272.321C264.881 272.321 263.506 247.62 263.368 240.782C263.306 237.512 263.478 227.967 263.671 218.892C263.884 208.969 264.124 199.611 264.124 199.611L261.614 179.724C261.614 179.724 264.124 179.469 264.881 180.481C265.22 180.798 265.588 181.082 265.981 181.328C270.314 184.262 285.624 193.282 285.624 193.282C285.624 193.282 294.097 196.657 296.126 201.491C298.155 206.325 299.565 209.754 300.548 211.131C301.532 212.508 302.068 218.981 302.068 218.981C302.068 218.981 304.984 230.894 307.261 232.912C309.537 234.929 311.202 247.765 311.202 247.765L291.085 263.603C291.085 263.603 289.317 289.949 288.939 290.968C288.561 291.987 296.263 314.759 296.263 314.759Z" fill="white"/>
<path d="M297.027 314.759C297.027 314.759 298.285 316.66 297.027 317.548C295.768 318.437 297.144 320.585 297.144 320.585C297.144 320.585 294.008 322.458 295.383 324.124C296.759 325.791 295.892 333.317 295.892 333.317L292.096 339.611C292.096 339.611 292.323 343.667 292.343 349.148C292.343 357.701 291.841 369.724 289.063 375.205L289.441 420.178C289.441 420.178 276.126 425.04 265.012 423.559L263.368 351.393C263.368 351.393 265.775 310.469 266.662 302.619C267.182 298.544 267.391 294.435 267.288 290.328C267.288 290.328 266.91 278.043 265.644 272.341C265.644 272.341 264.269 247.641 264.124 240.803C264.063 237.532 264.241 227.988 264.427 218.912C264.64 208.989 264.881 199.631 264.881 199.631L261.566 179.476C261.566 179.476 264.881 179.476 265.644 180.502C265.98 180.822 266.349 181.106 266.745 181.349C271.078 184.282 286.394 193.303 286.394 193.303C286.394 193.303 294.86 196.677 296.889 201.511C298.918 206.345 300.328 209.774 301.318 211.152C302.309 212.529 302.831 219.002 302.831 219.002C302.831 219.002 305.748 230.915 308.024 232.932C310.301 234.95 311.944 247.758 311.944 247.758L291.827 263.596C291.827 263.596 290.06 289.942 289.675 290.961C289.29 291.98 297.027 314.759 297.027 314.759Z" fill="white"/>
<path opacity="0.1" d="M272.935 205.478L274.75 210.78L265.191 220.42C265.404 210.504 265.644 201.139 265.644 201.139L262.329 180.984C262.329 180.984 265.644 180.984 266.408 182.01C266.743 182.33 267.112 182.611 267.508 182.85L275.638 206.331L272.935 205.478Z" fill="black"/>
<path d="M272.171 203.956L273.994 209.258L264.434 218.899C264.647 208.976 264.888 199.618 264.888 199.618L261.566 179.462C261.566 179.462 264.888 179.462 265.644 180.488C265.982 180.807 266.35 181.091 266.745 181.335L274.881 204.81L272.171 203.956Z" fill="white"/>
<path opacity="0.1" d="M272.171 151.491C272.177 153.972 271.787 156.439 271.016 158.797C270.886 158.817 270.753 158.811 270.626 158.779C270.498 158.747 270.378 158.69 270.273 158.611C270.094 152.414 267.047 146.595 263.299 141.644C262.247 140.149 260.971 138.825 259.516 137.719C258.046 136.613 256.217 136.095 254.386 136.266C252.323 136.548 250.5 137.953 248.416 138.132C245.665 138.359 243.203 136.452 240.472 136.355C239.362 136.366 238.268 136.613 237.261 137.081C236.254 137.549 235.358 138.226 234.633 139.068C233.199 140.767 232.133 142.747 231.504 144.88C230.423 148.116 229.834 151.495 229.757 154.906C229.723 156.834 229.537 159.251 227.749 159.954C227.884 158.536 227.723 157.105 227.276 155.753C226.83 154.4 226.108 153.155 225.156 152.097L225.115 152.055C225.115 151.863 225.115 151.684 225.115 151.491C225.061 148.363 225.631 145.256 226.789 142.35C227.948 139.445 229.673 136.8 231.863 134.569C234.053 132.338 236.666 130.566 239.547 129.356C242.429 128.147 245.522 127.524 248.646 127.524C251.771 127.524 254.864 128.147 257.746 129.356C260.627 130.566 263.24 132.338 265.43 134.569C267.62 136.8 269.345 139.445 270.504 142.35C271.662 145.256 272.232 148.363 272.178 151.491H272.171Z" fill="black"/>
<path d="M258.389 114.079C254.815 112.396 250.75 112.077 246.958 113.184C245.053 113.748 243.258 114.664 241.325 115.125C237.199 116.124 232.384 115.043 228.842 117.46C226.875 118.837 225.693 121.013 224.592 123.127L221.841 128.374C220.342 131.246 218.829 134.165 218.203 137.326C217.577 140.487 217.955 144.026 219.957 146.567C221.415 148.42 223.567 149.583 225.149 151.326C226.097 152.385 226.816 153.629 227.261 154.98C227.706 156.331 227.867 157.759 227.735 159.176C229.53 158.487 229.702 156.063 229.743 154.135C229.82 150.724 230.409 147.344 231.49 144.109C232.118 141.975 233.184 139.995 234.62 138.297C235.345 137.456 236.241 136.779 237.247 136.311C238.254 135.843 239.349 135.595 240.459 135.584C243.21 135.68 245.679 137.581 248.402 137.354C250.466 137.182 252.295 135.77 254.372 135.494C256.203 135.321 258.033 135.839 259.503 136.947C260.957 138.052 262.231 139.376 263.279 140.872C267.034 145.824 270.08 151.628 270.259 157.84C271.036 158.411 272.157 157.668 272.543 156.786C272.928 155.905 272.942 154.872 273.43 154.032C273.994 153.061 275.074 152.544 275.92 151.814C278.065 149.962 278.602 146.843 278.519 144.013C278.437 141.182 277.886 138.311 278.423 135.529C278.746 133.821 279.475 132.224 279.874 130.536C280.273 128.849 280.321 126.956 279.379 125.503C278.003 123.368 275.108 122.948 272.584 122.748C269.716 122.5 267.151 122.817 265.321 120.4C264.462 119.139 263.496 117.955 262.433 116.861C262.068 116.503 258.389 114.23 258.389 114.079Z" fill="#512E4E"/>
<path opacity="0.1" d="M183.636 259.292L176.449 245.988L174.173 266.516C174.173 266.516 175.438 275.633 175.184 277.031C174.929 278.429 180.369 290.961 180.369 290.961C180.369 290.961 198.34 323.009 205.679 324.662L230.472 306.923L223.897 298.563C223.897 298.563 221.621 297.675 221.05 298.563C221.05 298.563 208.842 277.533 207.577 276.012C206.312 274.49 206.559 271.453 206.559 271.453C206.559 271.453 204.661 269.428 205.294 267.528C205.926 265.627 201.628 259.037 201.628 259.037L205.548 255.367L183.636 259.292Z" fill="black"/>
<path d="M176.827 244.473L174.929 245.988L172.653 266.516C172.653 266.516 173.918 275.633 173.664 277.031C173.409 278.429 178.856 290.961 178.856 290.961C178.856 290.961 196.82 323.009 204.159 324.662L228.959 306.923L222.378 298.563C222.378 298.563 220.101 297.675 219.53 298.563C219.53 298.563 207.323 277.533 206.057 276.012C204.792 274.49 205.046 271.453 205.046 271.453C205.046 271.453 203.148 269.428 203.781 267.528C204.413 265.627 200.108 259.037 200.108 259.037L204.028 255.367L176.827 244.473Z" fill="white"/>
<path opacity="0.1" d="M294.62 324.889C295.995 326.562 295.129 334.075 295.129 334.075L291.332 340.369C291.332 340.369 291.559 344.431 291.573 349.906L285.19 351.903C284.614 352.083 284.002 352.123 283.407 352.019C282.812 351.914 282.25 351.669 281.769 351.303C281.288 350.937 280.901 350.461 280.641 349.915C280.38 349.369 280.254 348.768 280.273 348.164L281.373 312.625L296.263 318.326C294.998 319.208 296.387 321.37 296.387 321.37C296.387 321.37 293.23 323.216 294.62 324.889Z" fill="black"/>
<path d="M295.383 324.124C296.759 325.798 295.892 333.317 295.892 333.317L292.096 339.611C292.096 339.611 292.323 343.667 292.343 349.148L285.844 351.18C285.279 351.356 284.68 351.394 284.098 351.291C283.515 351.188 282.965 350.948 282.495 350.589C282.024 350.231 281.645 349.765 281.39 349.231C281.135 348.696 281.012 348.108 281.03 347.516L282.137 311.867L297.034 317.569C295.761 318.45 297.151 320.606 297.151 320.606C297.151 320.606 294.008 322.458 295.383 324.124Z" fill="white"/>
<path d="M300.314 307.185C300.314 307.185 299.303 313.651 296.772 314.03C294.241 314.408 293.107 324.489 290.583 324.131C288.058 323.773 289.73 314.759 289.819 313.01C289.909 311.261 287.068 304.017 289.193 302.371C291.318 300.726 298.045 302.371 298.045 302.371L300.314 307.185Z" fill="#CF6F80"/>
<path opacity="0.1" d="M305.699 257.392L310.473 247.751C310.473 247.751 312.371 255.099 312.371 259.024C312.371 262.949 315.025 263.334 315.025 263.334C315.025 263.334 317.935 266.777 316.401 269.284C314.867 271.79 314.248 278.029 314.248 278.029C314.248 278.029 314.75 289.935 312.474 291.581C310.197 293.227 309.723 297.159 309.723 297.159C309.723 297.159 305.541 304.63 305.672 306.407C305.803 308.183 299.854 320.213 299.854 320.213C299.854 320.213 302.763 305.264 285.809 298.804C285.809 298.804 285.679 293.729 286.944 292.338C288.21 290.947 290.184 290.314 288.946 283.283C287.708 276.253 288.588 267.852 288.588 266.164C288.588 264.477 292.384 253.955 292.384 253.955L305.699 257.392Z" fill="black"/>
<path d="M307.763 246.374L311.931 247.751C311.931 247.751 313.836 255.099 313.836 259.024C313.836 262.949 316.49 263.334 316.49 263.334C316.49 263.334 319.4 266.777 317.866 269.284C316.332 271.79 315.72 278.029 315.72 278.029C315.72 278.029 316.222 289.935 313.946 291.581C311.669 293.227 311.16 297.159 311.16 297.159C311.16 297.159 306.986 304.63 307.116 306.407C307.247 308.183 301.291 320.213 301.291 320.213C301.291 320.213 304.207 305.264 287.247 298.804C287.247 298.804 287.123 293.729 288.389 292.338C289.654 290.947 291.628 290.314 290.39 283.283C289.152 276.253 290.032 267.852 290.032 266.164C290.032 264.477 293.829 253.955 293.829 253.955L307.763 246.374Z" fill="white"/>
<path opacity="0.1" d="M215.706 496.249C215.706 496.249 222.35 492.069 226.71 495.106C231.071 498.142 215.706 496.249 215.706 496.249Z" fill="black"/>
<path opacity="0.1" d="M267.329 483.323C267.329 483.323 273.21 482.566 278.148 487.889C283.086 493.212 267.329 483.323 267.329 483.323Z" fill="black"/>
<g opacity="0.1">
<path d="M275.933 150.306C275.087 151.036 274.001 151.56 273.437 152.531C272.955 153.364 272.942 154.39 272.556 155.285C272.171 156.18 271.05 156.91 270.273 156.345C270.094 150.148 267.041 144.329 263.292 139.371C262.244 137.875 260.971 136.551 259.517 135.446C258.045 134.338 256.212 133.82 254.379 133.993C252.316 134.276 250.5 135.68 248.416 135.853C245.665 136.087 243.196 134.179 240.466 134.083C239.356 134.094 238.262 134.342 237.256 134.811C236.25 135.281 235.356 135.959 234.633 136.803C233.198 138.498 232.132 140.476 231.504 142.608C230.423 145.843 229.835 149.223 229.757 152.634C229.716 154.555 229.537 156.951 227.763 157.668C227.804 158.176 227.804 158.688 227.763 159.196C229.551 158.508 229.73 156.084 229.771 154.156C229.848 150.745 230.437 147.365 231.518 144.13C232.146 141.995 233.211 140.016 234.647 138.318C235.371 137.477 236.266 136.8 237.271 136.332C238.277 135.864 239.371 135.616 240.479 135.605C243.23 135.701 245.706 137.602 248.43 137.374C250.493 137.202 252.323 135.791 254.393 135.515C256.226 135.342 258.058 135.86 259.53 136.968C260.984 138.073 262.258 139.397 263.306 140.893C267.054 145.844 270.108 151.649 270.287 157.86C271.064 158.432 272.185 157.688 272.57 156.807C272.955 155.925 272.969 154.893 273.451 154.052C274.014 153.081 275.101 152.565 275.947 151.835C278.093 149.983 278.629 146.863 278.547 144.033C278.547 143.944 278.547 143.854 278.547 143.772C278.416 146.223 277.763 148.723 275.933 150.306Z" fill="black"/>
<path d="M225.163 149.817C223.581 148.075 221.422 146.912 219.97 145.066C218.749 143.432 218.051 141.466 217.969 139.426C217.753 141.975 218.463 144.516 219.97 146.581C221.422 148.433 223.581 149.597 225.163 151.339C226.682 153.043 227.594 155.204 227.756 157.482C227.861 156.095 227.686 154.702 227.24 153.385C226.795 152.068 226.088 150.854 225.163 149.817Z" fill="black"/>
<path d="M279.888 129.028C279.482 130.716 278.76 132.32 278.43 134.021C278.234 135.157 278.163 136.312 278.217 137.464C278.24 136.808 278.311 136.154 278.43 135.508C278.76 133.8 279.482 132.203 279.888 130.516C280.124 129.585 280.201 128.621 280.115 127.665C280.072 128.124 279.996 128.58 279.888 129.028Z" fill="black"/>
</g>
<path opacity="0.1" d="M91.7861 524.247C128.798 524.247 158.801 519.422 158.801 513.471C158.801 507.519 128.798 502.694 91.7861 502.694C54.7747 502.694 24.771 507.519 24.771 513.471C24.771 519.422 54.7747 524.247 91.7861 524.247Z" fill="#415A77"/>
<path d="M93.9457 307.026H89.6334V404.237H93.9457V307.026Z" fill="#535461"/>
<path d="M121.043 403.941L120.775 408.32L120.39 414.518L120.232 417.093L119.853 423.291L119.688 425.866L119.303 432.064L114.957 502.35C114.768 505.374 113.435 508.212 111.23 510.287C109.024 512.362 106.112 513.518 103.086 513.519H80.4862C77.4606 513.518 74.5493 512.362 72.3451 510.287C70.1409 508.212 68.8096 505.373 68.6224 502.35L64.2964 432.015L63.9113 425.818L63.7531 423.243L63.3679 417.045L63.2097 414.47L62.8246 408.272L62.5495 403.893C62.5017 403.05 62.6264 402.206 62.916 401.413C63.2056 400.62 63.654 399.895 64.2336 399.282C64.8132 398.668 65.5119 398.18 66.2867 397.847C67.0615 397.514 67.8961 397.343 68.7393 397.344H114.964C115.804 397.351 116.633 397.531 117.401 397.872C118.169 398.212 118.86 398.707 119.429 399.325C119.999 399.943 120.436 400.672 120.714 401.466C120.991 402.26 121.103 403.102 121.043 403.941Z" fill="#3F3D56"/>
<path d="M120.775 408.32L120.39 414.497H63.1823L62.7971 408.32H120.775Z" fill="#9D9CB5"/>
<path d="M120.232 417.073L119.854 423.256H63.7256L63.3405 417.073H120.232Z" fill="#9D9CB5"/>
<path d="M119.688 425.839L119.31 432.015H64.2689L63.8838 425.839H119.688Z" fill="#9D9CB5"/>
<path d="M56.2153 343.461C81.3253 361.654 91.8067 390.107 91.8067 390.107C91.8067 390.107 61.5454 389.067 36.4285 370.874C11.3116 352.681 0.850769 324.235 0.850769 324.235C0.850769 324.235 31.0984 325.268 56.2153 343.461Z" fill="#415A77"/>
<path d="M0.830139 324.235C0.830139 324.235 32.2469 341.691 42.3226 356.145C52.3982 370.599 91.8067 390.107 91.8067 390.107" stroke="#535461" stroke-width="2" stroke-miterlimit="10"/>
<path d="M72.4257 306.813C86.0915 316.708 91.8067 332.195 91.8067 332.195C91.8067 332.195 75.3349 331.63 61.6623 321.735C47.9897 311.84 42.2881 296.346 42.2881 296.346C42.2881 296.346 58.7531 296.911 72.4257 306.813Z" fill="#415A77"/>
<path d="M42.2881 296.346C42.2881 296.346 59.3858 305.849 64.8672 313.713C70.3487 321.577 91.8067 332.195 91.8067 332.195" stroke="#535461" stroke-width="2" stroke-miterlimit="10"/>
<path d="M111.649 331.41C95.9471 348.687 92.6252 371.267 92.6252 371.267C92.6252 371.267 114.764 365.827 130.452 348.543C146.14 331.258 149.475 308.686 149.475 308.686C149.475 308.686 127.35 314.133 111.649 331.41Z" fill="#415A77"/>
<path d="M149.489 308.693C149.489 308.693 129.035 326.404 123.836 338.606C118.636 350.808 92.6252 371.266 92.6252 371.266" stroke="#535461" stroke-width="2" stroke-miterlimit="10"/>
<path d="M688.031 325.33C688.031 325.33 676.676 268.767 681.023 261.73C681.023 261.73 681.181 255.188 680.919 246.849C680.919 246.532 680.919 246.216 680.919 245.892C681.684 246.402 682.482 246.862 683.306 247.269C687.311 249.329 691.909 249.923 696.305 248.949L692.866 245.114C692.041 244.198 691.181 243.206 691.002 241.994C690.823 240.782 691.318 239.701 691.745 238.62C695.012 230.357 695.184 219.966 688.891 213.658C683.574 208.356 682.281 201.511 676.511 196.67C672.295 193.124 669.977 187.925 667.79 182.898C665.94 178.649 664.076 174.366 663.017 169.863C662.192 166.344 661.862 162.701 660.727 159.265C659.592 155.829 657.467 152.489 654.145 150.954C652.962 150.41 651.649 150.1 650.569 149.377C649.152 148.42 648.299 146.863 647.274 145.5C642.068 138.614 624.633 142.67 616.38 145.465C614.137 146.17 612.059 147.322 610.273 148.853L610.349 148.729C610.411 148.626 610.486 148.523 610.555 148.42C609.652 149.151 608.871 150.023 608.244 151.002C607.041 152.909 606.539 155.134 605.534 157.199C604.324 159.644 597.591 166.468 600.486 169.216C600.689 169.4 600.922 169.549 601.174 169.656C602.261 170.109 603.458 170.229 604.613 170.001L604.489 170.297C603.5 172.721 602.993 175.315 602.997 177.933C602.997 189.247 612.316 198.419 623.822 198.419C625.985 198.421 628.135 198.089 630.197 197.435C630.246 197.696 630.287 197.958 630.335 198.22C630.335 198.323 630.369 198.426 630.383 198.529L630.019 199.039C630 199.008 629.98 198.978 629.957 198.95L619.159 214.058C617.508 215.221 608.003 222.107 607.467 227.272C606.903 232.925 606.339 239.543 606.339 239.543L606.263 240.961C605.792 241.356 605.24 241.644 604.646 241.804C604.052 241.965 603.431 241.994 602.825 241.891C599.455 241.34 599.455 254.286 599.455 254.286C599.455 254.286 597.212 256.352 595.672 254.561C594.131 252.771 590.06 258.838 590.06 258.838L564.544 259.939L563.959 259.974L562.584 255.711C562.436 255.262 562.117 254.889 561.696 254.674C561.274 254.458 560.785 254.418 560.335 254.561C560.228 254.597 560.125 254.64 560.025 254.692L559.929 254.747L559.75 254.871L559.661 254.954C559.612 254.999 559.566 255.047 559.523 255.099L559.441 255.195L559.4 255.236C559.241 255.456 559.136 255.71 559.093 255.978C559.05 256.246 559.07 256.52 559.152 256.779L560.335 260.435C555.411 261.427 550.376 264.223 554.482 271.921L533.671 268.072L540.404 273.732L575.163 280.914C574.702 281.741 575.005 282.939 576.442 284.626C582.632 291.905 593.911 293.881 598.45 294.39C599.649 297.075 601.147 299.616 602.914 301.965L602.522 309.216C602.522 309.216 591.03 364.484 588.925 367.286C589.987 366.081 590.96 364.799 591.834 363.451C588.499 374.806 583.836 390.348 582.611 392.675C580.644 396.394 578.822 411.44 581.064 412.404C581.752 412.7 583.719 412.555 586.525 412.342V413.588L586.401 460.82C586.401 460.82 586.965 489.789 585.417 492.551C583.87 495.312 583.457 501.103 583.457 501.103C583.457 501.103 577.268 512.527 572.364 517.12C572.33 517.156 572.294 517.188 572.254 517.217L572.102 516.142C572.102 516.142 566.208 523.593 553.168 523.173C553.168 523.173 545.321 528.283 556.958 528.558C568.595 528.833 583.457 528.145 583.457 528.145C583.457 528.145 593.836 512.307 602.529 514.373V526.375H605.191V514.18C606.425 513.366 607.481 512.31 608.296 511.076C609.11 509.841 609.666 508.454 609.929 506.998C610.157 505.497 609.99 503.963 609.445 502.546C608.9 501.13 607.995 499.88 606.82 498.92C606.293 498.443 605.869 497.861 605.577 497.211C605.285 496.562 605.13 495.859 605.122 495.147L605.025 495.229C605.025 494.988 604.964 494.741 604.936 494.486C604.173 488.288 603.217 475.501 606.594 466.039C611.222 453.066 612.625 434.997 609.255 424.241C608.168 420.803 607.275 417.306 606.58 413.767C606.497 413.32 606.422 412.893 606.353 412.493C608.656 412.805 610.938 413.265 613.182 413.871C620.988 416.026 638.065 416.425 652.646 416.308C652.68 416.708 652.721 417.128 652.77 417.548C653.03 420.468 653.573 423.355 654.393 426.169C656.222 431.678 657.061 455.965 657.061 455.965C657.061 455.965 659.42 475.935 658.134 484.06C657.446 488.578 656.759 493.115 656.367 497.674V497.764C656.367 497.764 652.501 508.781 649.675 514.765C649.606 514.917 649.53 515.068 649.461 515.213C648.708 515.282 647.966 515.446 647.254 515.702C647.254 515.702 643.464 523.276 639.688 524.53C635.913 525.783 637.164 529.908 645.713 528.393C654.262 526.878 667.171 525.638 667.171 525.638L667.728 517.912L670.356 514.621L669.668 522.326L672.467 521.775L672.096 512.403L676.394 507.018C676.394 507.018 681.587 502.391 673.87 493.288V493.487C673.787 493.356 673.712 493.219 673.622 493.088V493.047C672.343 491.063 671.325 487.366 673.189 480.803C676.559 468.945 678.519 458.182 678.519 458.182C678.519 458.182 686.043 429.35 676.999 415.709H677.398C676.471 413.79 675.816 411.75 675.452 409.649C675.406 409.402 675.365 409.147 675.328 408.885C682.02 408.499 688.588 407.288 693.946 404.671C693.925 404.643 690.699 336.223 688.031 325.33ZM603.072 277.609V277.747L601.697 277.816L603.072 277.609ZM598.354 278.263C598.128 278.313 597.916 278.415 597.735 278.559C597.144 279.397 596.773 280.37 596.655 281.39L594.51 280.908C594.51 280.908 593.003 280.584 590.837 280.219L589.812 279.186C592.632 278.952 595.562 278.608 598.354 278.263Z" fill="url(#paint1_linear_4_487)"/>
<path d="M669.351 512.5L668.533 522.257L671.277 521.706L670.865 511.123L669.351 512.5Z" fill="#E0E1DD"/>
<path d="M606.745 466.17C603.437 475.604 604.372 488.337 605.115 494.52C605.39 496.806 605.644 498.197 605.644 498.197C605.644 498.197 600.699 509.477 600.287 509.904C599.874 510.331 585.734 518.973 585.734 518.973L575.851 524.75C575.851 524.75 565.823 520.35 570.631 518.835C571.613 518.44 572.498 517.836 573.223 517.065C578.038 512.486 584.083 501.103 584.083 501.103C584.083 501.103 584.496 495.326 586.009 492.578C587.522 489.831 586.972 460.958 586.972 460.958L587.089 413.891V407.756L605.899 407.893C606.018 409.976 606.289 412.048 606.71 414.091C607.386 417.618 608.26 421.103 609.331 424.53C612.646 435.266 611.27 453.245 606.745 466.17Z" fill="#FFB0B1"/>
<path opacity="0.1" d="M605.644 498.197C605.644 498.197 600.699 509.477 600.287 509.904C599.874 510.331 585.734 518.973 585.734 518.973L575.851 524.75C575.851 524.75 565.823 520.35 570.631 518.835C571.613 518.44 572.498 517.836 573.223 517.065L573.65 520.074L576.944 519.937L605.142 494.534C605.39 496.806 605.644 498.197 605.644 498.197Z" fill="black"/>
<path d="M605.301 495.174L576.944 520.749L573.65 520.887L572.962 516.067C572.962 516.067 567.199 523.49 554.393 523.077C554.393 523.077 546.704 528.166 558.1 528.441C569.496 528.716 584.049 528.028 584.049 528.028C584.049 528.028 594.214 512.19 602.721 514.256V526.217H605.335V514.145C606.55 513.326 607.587 512.27 608.384 511.039C609.18 509.808 609.72 508.429 609.97 506.984C610.197 505.495 610.037 503.974 609.505 502.565C608.974 501.156 608.09 499.908 606.937 498.941C606.423 498.458 606.012 497.875 605.731 497.227C605.449 496.579 605.303 495.881 605.301 495.174Z" fill="#E0E1DD"/>
<path d="M671.965 480.879C670.135 487.421 671.133 491.105 672.384 493.081V493.122C673.99 495.563 675.106 498.292 675.672 501.158L675.782 501.778L662.88 520.612L655.878 523.366C655.878 523.366 644.62 519.517 646.676 518.415C647.192 518.146 647.996 516.714 648.918 514.738C651.669 508.781 655.466 497.791 655.466 497.791V497.702C655.864 493.164 656.497 488.64 657.199 484.136C658.457 476.031 656.146 456.137 656.146 456.137C656.146 456.137 655.321 431.947 653.533 426.445C652.726 423.647 652.189 420.779 651.93 417.878C651.559 414.435 651.477 411.598 651.477 411.598C651.477 411.598 658.891 401.269 672.481 412.425C673.567 413.314 674.524 414.353 675.321 415.509C684.709 428.882 677.151 458.341 677.151 458.341C677.151 458.341 675.259 469.056 671.965 480.879Z" fill="#FFB0B1"/>
<path opacity="0.1" d="M675.803 501.778L662.9 520.612L655.899 523.366C655.899 523.366 644.64 519.517 646.697 518.415C647.212 518.146 648.017 516.714 648.939 514.738C653.705 514.696 656.174 519.241 656.174 519.241L662.212 518.277C662.212 518.277 670.177 502.604 671.965 501.647C673.753 500.69 672.24 494.493 672.24 494.493V492.916C672.288 492.971 672.329 493.033 672.384 493.088V493.129C673.99 495.569 675.106 498.299 675.672 501.165L675.803 501.778Z" fill="black"/>
<path d="M656.587 519.647C656.587 519.647 653.148 513.326 646.559 515.66C646.559 515.66 642.852 523.235 639.145 524.461C635.438 525.687 636.676 529.818 645.053 528.31C653.43 526.802 666.057 525.556 666.057 525.556L666.607 517.85L675.122 506.991C675.122 506.991 680.197 502.384 672.646 493.315V494.892C672.646 494.892 674.159 501.089 672.371 502.047C670.583 503.004 662.646 518.683 662.646 518.683L656.587 519.647Z" fill="#E0E1DD"/>
<path opacity="0.1" d="M605.919 407.88C606.038 409.963 606.309 412.034 606.731 414.077C598.987 412.941 591.8 413.506 587.089 413.877V407.742L605.919 407.88Z" fill="black"/>
<path opacity="0.1" d="M676.085 417.224C676.085 417.224 665.081 417.761 651.958 417.871C651.587 414.428 651.504 411.591 651.504 411.591C651.504 411.591 658.918 401.262 672.508 412.418C673.595 413.307 674.551 414.346 675.349 415.503C675.562 416.09 675.808 416.664 676.085 417.224Z" fill="black"/>
<path d="M676.085 415.985C676.085 415.985 627.886 418.319 613.196 414.194C598.505 410.07 583.946 413.643 581.752 412.686C579.558 411.729 581.339 396.738 583.265 393.026C585.19 389.315 595.754 351.779 595.754 351.779L605.919 298.715L616.628 295.761L617.384 295.547L636.043 290.397L649.716 286.616C649.716 286.616 676.903 392.889 674.571 400.725C673.725 403.726 673.588 406.883 674.173 409.946C674.529 412.037 675.172 414.069 676.085 415.985Z" fill="#415A77"/>
<path d="M570.486 262.425C570.486 262.425 560.858 272.754 568.148 278.511C575.438 284.268 580.232 279.062 580.232 279.062L570.486 262.425Z" fill="#C7DAF5"/>
<path opacity="0.1" d="M570.486 262.425C570.486 262.425 560.858 272.754 568.148 278.511C575.438 284.268 580.232 279.062 580.232 279.062L570.486 262.425Z" fill="black"/>
<path d="M648.279 194.515C648.279 194.515 647.151 195.589 645.452 197.173C643.031 199.438 639.448 202.751 636.27 205.526C631.869 209.361 628.237 212.178 629.537 209.774C630.837 207.371 630.589 203.184 629.943 199.266C629.895 199.005 629.854 198.743 629.805 198.488C629.27 195.611 628.56 192.768 627.68 189.977C627.68 189.977 634.792 180.777 638.726 177.148C640.19 175.771 641.215 175.206 641.277 176.164C641.346 177.451 642.309 180.295 643.505 183.311C643.54 183.408 643.574 183.497 643.616 183.594C644.413 185.659 645.314 187.78 646.105 189.612C647.316 192.422 648.279 194.515 648.279 194.515Z" fill="#FFB0B1"/>
<path opacity="0.1" d="M643.616 183.594C642.947 187.193 641.326 190.546 638.921 193.303C636.515 196.06 633.415 198.119 629.943 199.266C629.396 196.123 628.64 193.02 627.68 189.977C627.68 189.977 641.071 172.659 641.277 176.164C641.325 177.493 642.371 180.44 643.616 183.594Z" fill="black"/>
<path opacity="0.1" d="M628.609 203.894L630.342 201.449C630.342 201.449 631.49 208.459 635.713 205.367C639.936 202.276 640.142 228.635 640.142 228.635L635.61 296.484L602.859 294.521L603.787 261.737L607.494 245.21L616.662 221.185L622.116 213.245L628.609 203.894Z" fill="black"/>
<path d="M640.142 229.055L636.016 290.403L635.582 296.904L617.322 295.809L616.635 295.768L602.88 294.941L603.808 262.15L607.515 245.623L616.683 221.598L622.137 213.658L628.629 204.272L630.362 201.835C630.362 201.835 631.511 208.845 635.734 205.753L635.823 205.691C639.95 203.074 640.142 229.055 640.142 229.055Z" fill="#415A77"/>
<path d="M607.976 239.88C607.976 239.88 606.332 243.323 603.031 242.766C599.73 242.208 599.737 255.161 599.737 255.161C599.737 255.161 597.543 257.226 596.03 255.436C594.516 253.646 590.528 259.698 590.528 259.698L565.534 260.8C565.534 260.8 576.655 265.889 574.475 281.286C574.475 281.286 612.233 278.945 613.471 275.371C614.709 271.797 607.976 239.88 607.976 239.88Z" fill="white"/>
<path opacity="0.03" d="M607.976 239.88C607.976 239.88 606.332 243.323 603.031 242.766C599.73 242.208 599.737 255.161 599.737 255.161C599.737 255.161 597.543 257.226 596.03 255.436C594.516 253.646 590.528 259.698 590.528 259.698L565.534 260.8C565.534 260.8 576.655 265.889 574.475 281.286C574.475 281.286 612.233 278.945 613.471 275.371C614.709 271.797 607.976 239.88 607.976 239.88Z" fill="black"/>
<path d="M535.342 268.891L541.931 274.524L596.167 285.934L589.441 279.062L535.342 268.891Z" fill="white"/>
<path d="M628.712 206.063C627.811 207.44 625.232 214.491 623.079 220.648C621.284 225.778 619.785 230.288 619.785 230.288C619.785 230.288 616.284 253.108 614.496 257.233C612.708 261.358 613.677 277.444 613.677 277.444L607.013 317.17C607.013 317.17 603.994 337.656 599.331 349.892C594.73 361.936 589.606 367.582 589.448 367.761C591.511 364.966 602.756 309.919 602.756 309.919L606.47 240.493C606.47 240.493 607.013 233.896 607.563 228.257C608.113 222.617 619.255 214.918 619.255 214.918L629.998 199.624C631.078 201.07 630.356 203.591 628.712 206.063Z" fill="white"/>
<path d="M600.699 295.286C600.699 295.286 584.881 294.597 577.219 285.383C569.558 276.17 594.929 281.706 594.929 281.706L601.525 283.221L600.699 295.286Z" fill="#FFB0B1"/>
<path opacity="0.1" d="M674.571 400.732C673.725 403.733 673.588 406.89 674.173 409.952C656.917 411.178 638.457 406.509 638.457 406.509C635.019 409.677 625.961 414.346 625.961 414.346L621.023 353.06C617.866 344.796 616.628 301.504 616.628 301.504C616.628 301.504 616.91 299.238 617.316 295.843C617.316 295.761 617.316 295.671 617.35 295.589C618.581 286.106 621.023 268.306 622.219 265.903C623.87 262.597 617.144 253.804 617.144 253.804L620.204 227.671L620.576 224.518C627.027 221.632 631.972 212.419 631.972 212.419L635.768 205.76C639.895 203.109 640.108 229.09 640.108 229.09L635.981 290.438L649.654 286.657C649.654 286.657 676.903 392.896 674.571 400.732Z" fill="black"/>
<path d="M692.281 404.967C673.471 414.318 639.283 405.656 639.283 405.656C635.844 408.823 626.786 413.492 626.786 413.492L621.841 352.206C618.691 343.943 617.453 300.65 617.453 300.65C617.453 300.65 621.428 268.347 623.079 265.049C623.56 264.085 623.327 262.653 622.756 261.11C619.949 253.768 618.917 245.866 619.743 238.049L621.064 226.817L621.428 223.671C627.886 220.778 632.831 211.565 632.831 211.565L636.27 205.533L642.598 194.419L645.596 189.158L646.105 189.619L649.991 193.145C649.991 193.145 651.642 194.522 654.118 196.588C659.503 201.132 668.808 209.134 673.609 214.03C677.831 218.341 679.166 235.108 679.551 247.73C679.805 256.042 679.654 262.556 679.654 262.556C675.397 269.573 686.532 325.908 686.532 325.908C689.124 336.795 692.281 404.967 692.281 404.967Z" fill="white"/>
<path opacity="0.03" d="M656.174 211.427C656.174 211.427 643.265 236.031 644.764 245.382C646.263 254.734 650.528 265.317 648.471 267.79C647.765 268.726 646.851 269.486 645.802 270.011C644.754 270.535 643.598 270.81 642.426 270.813C640.362 270.95 634.86 274.8 634.86 275.213C634.86 275.626 629.778 275.626 625.232 277.554C620.686 279.482 613.973 280.577 613.973 280.577C613.973 280.577 600.906 280.164 599.688 281.403C598.471 282.643 597.219 290.059 599.826 295.974C602.433 301.889 605.328 306.303 607.515 307.109C609.702 307.915 623.581 303.26 634.84 302.158C646.098 301.056 658.32 292.125 658.32 292.125C658.32 292.125 671.779 287.305 674.138 279.2C676.497 271.095 671.257 226.549 671.257 226.549C671.257 226.549 667.295 205.787 656.174 211.427Z" fill="black"/>
<path opacity="0.03" d="M654.523 209.361C654.523 209.361 641.614 233.972 643.127 243.316C644.64 252.661 648.891 263.252 646.827 265.731C646.123 266.668 645.211 267.429 644.164 267.954C643.116 268.479 641.96 268.752 640.789 268.754C638.726 268.891 633.223 272.741 633.223 273.154C633.223 273.567 628.141 273.567 623.595 275.488C619.049 277.409 612.336 278.511 612.336 278.511C612.336 278.511 599.269 278.098 598.058 279.338C596.848 280.577 595.582 288 598.196 293.908C600.809 299.817 603.698 304.238 605.885 305.043C608.072 305.849 621.951 301.194 633.21 300.099C644.468 299.004 656.69 290.059 656.69 290.059C656.69 290.059 670.142 285.239 672.474 277.141C674.805 269.043 669.592 224.483 669.592 224.483C669.592 224.483 665.644 203.729 654.523 209.361Z" fill="black"/>
<path d="M655.768 210.188C655.768 210.188 642.859 234.798 644.372 244.143C645.885 253.487 650.135 264.078 648.079 266.55C647.375 267.49 646.462 268.253 645.413 268.779C644.364 269.305 643.207 269.579 642.034 269.58C639.97 269.718 634.468 273.567 634.468 273.973C634.468 274.38 629.393 274.386 624.84 276.315C620.287 278.243 613.581 279.338 613.581 279.338C613.581 279.338 600.514 278.924 599.296 280.164C598.079 281.403 596.827 288.827 599.434 294.735C602.041 300.643 604.936 305.064 607.123 305.87C609.31 306.675 623.189 302.02 634.448 300.918C645.706 299.817 657.928 290.885 657.928 290.885C657.928 290.885 671.387 286.065 673.746 277.96C676.105 269.855 670.899 225.309 670.899 225.309C670.899 225.309 666.882 204.582 655.768 210.188Z" fill="white"/>
<path opacity="0.1" d="M655.486 276.197C655.486 276.197 645.17 274.132 648.76 277.575C652.35 281.018 652.329 284.034 656.724 283.896C661.119 283.758 655.486 276.197 655.486 276.197Z" fill="black"/>
<path opacity="0.1" d="M672.921 350.278C672.921 350.278 668.258 353.438 677.178 360.724C686.098 368.009 672.921 350.278 672.921 350.278Z" fill="black"/>
<path opacity="0.1" d="M664.021 376.259C664.021 376.672 662.371 391.408 668.547 395.092C674.723 398.776 664.021 376.259 664.021 376.259Z" fill="black"/>
<path d="M565.961 260.766C560.981 260.938 550.225 262.46 555.803 272.878C560.734 282.099 569.021 275.936 573.684 271.26C572.547 266.901 569.782 263.145 565.961 260.766Z" fill="#FFB0B1"/>
<path opacity="0.1" d="M654.118 197.008C648.836 200.623 644.406 203.673 643.54 204.307C641.174 206.063 636.662 216.371 633.753 221.632C631.435 225.867 623.904 226.955 621.064 227.224L621.428 224.077C627.886 221.185 632.831 211.971 632.831 211.971L645.596 189.564L649.991 193.565C649.991 193.565 651.642 194.942 654.118 197.008Z" fill="black"/>
<path d="M654.118 196.595C648.836 200.21 644.406 203.26 643.54 203.901C641.174 205.65 636.662 215.958 633.753 221.219C631.435 225.454 623.904 226.542 621.064 226.811L621.428 223.664C627.886 220.771 632.831 211.558 632.831 211.558L645.596 189.151L649.991 193.138C649.991 193.138 651.642 194.501 654.118 196.595Z" fill="#DCE7FF"/>
<path d="M643.953 179.049C643.955 183.182 642.703 187.219 640.362 190.624C637.598 194.65 633.483 197.55 628.765 198.799C624.048 200.047 619.039 199.561 614.649 197.428C610.259 195.295 606.778 191.657 604.837 187.175C602.897 182.692 602.625 177.661 604.072 172.995C605.52 168.33 608.589 164.338 612.724 161.744C616.86 159.15 621.787 158.127 626.611 158.859C631.436 159.591 635.838 162.031 639.02 165.735C642.202 169.44 643.952 174.163 643.953 179.049Z" fill="#FFB0B1"/>
<path opacity="0.1" d="M679.551 247.737C676.758 246.017 674.483 243.571 672.969 240.658C671.82 238.386 671.057 235.762 669.097 234.151C667.329 232.705 664.97 232.354 662.77 231.707C655.534 229.565 649.468 222.954 649.241 215.407C649.131 211.854 650.239 208.308 649.737 204.789C649.451 202.797 648.66 200.913 647.439 199.315C646.833 198.55 646.169 197.834 645.452 197.173C644.489 196.264 643.478 195.383 642.598 194.419C642.043 193.822 641.558 193.163 641.153 192.456C640.826 191.877 640.561 191.266 640.362 190.631C638.987 186.417 640.239 181.418 638.726 177.155L638.643 176.921C638.072 175.406 636.91 173.891 635.294 173.774C633.677 173.657 632.295 175 630.754 175.599C627.529 176.852 624.049 174.717 621.36 172.541C618.671 170.365 615.638 167.88 612.219 168.362C609.957 168.685 608.168 170.228 606.085 171.027C605.614 171.209 605.129 171.349 604.633 171.447C606.397 167.043 609.637 163.392 613.797 161.12C617.957 158.849 622.778 158.099 627.43 158.999C632.083 159.9 636.277 162.394 639.292 166.054C642.307 169.714 643.955 174.311 643.953 179.056C643.955 180.488 643.805 181.917 643.505 183.318C643.54 183.415 643.574 183.504 643.616 183.601C644.413 185.666 645.314 187.787 646.105 189.619L649.991 193.145C649.991 193.145 651.642 194.522 654.118 196.588C659.503 201.132 668.808 209.134 673.609 214.03C677.831 218.354 679.152 235.115 679.551 247.737Z" fill="black"/>
<path d="M605.844 158.446C606.827 156.442 607.316 154.197 608.492 152.296C610.218 149.542 613.23 147.779 616.325 146.712C624.406 143.923 641.483 139.874 646.587 146.712C647.591 148.089 648.423 149.618 649.812 150.568C650.871 151.291 652.151 151.601 653.313 152.145C656.566 153.674 658.643 157.007 659.75 160.408C660.858 163.81 661.188 167.46 661.999 170.965C663.038 175.461 664.86 179.724 666.676 183.959C668.815 188.958 671.085 194.143 675.211 197.676C680.844 202.496 682.089 209.32 687.316 214.608C693.505 220.889 693.306 231.252 690.115 239.481C689.695 240.562 689.221 241.691 689.386 242.841C689.551 243.991 690.404 245.038 691.208 245.954L694.592 249.776C686.587 251.711 677.529 247.524 673.801 240.176C672.653 237.904 671.889 235.287 669.922 233.669C668.162 232.223 665.796 231.879 663.602 231.231C656.367 229.083 650.3 222.465 650.074 214.918C649.963 211.372 651.071 207.826 650.569 204.314C650.289 202.309 649.496 200.411 648.265 198.805C646.373 196.333 643.519 194.673 641.979 191.919C639.372 187.312 641.353 181.328 639.475 176.384C638.897 174.869 637.742 173.354 636.126 173.237C634.51 173.12 633.127 174.463 631.58 175.062C628.361 176.315 624.881 174.187 622.192 172.004C619.503 169.822 616.47 167.343 613.045 167.831C610.782 168.148 609.001 169.691 606.917 170.496C605.376 171.089 602.254 171.619 600.906 170.317C598.058 167.694 604.654 160.897 605.844 158.446Z" fill="#591D4B"/>
<path opacity="0.1" d="M675.713 237.904C674.558 235.632 673.801 233.015 671.834 231.404C670.074 229.958 667.708 229.606 665.507 228.959C658.279 226.817 652.213 220.2 651.979 212.653C651.869 209.107 652.976 205.553 652.481 202.041C652.193 200.049 651.399 198.165 650.177 196.567C648.279 194.095 645.424 192.435 643.891 189.681C641.284 185.081 643.265 179.097 641.38 174.146C640.81 172.638 639.647 171.123 638.038 170.999C636.428 170.875 635.032 172.232 633.492 172.831C630.273 174.084 626.786 171.949 624.104 169.773C621.422 167.597 618.375 165.111 614.957 165.593C612.694 165.917 610.906 167.46 608.829 168.258C607.288 168.851 604.159 169.388 602.811 168.086C599.977 165.332 606.573 158.549 607.756 156.111C608.739 154.101 609.228 151.863 610.411 149.962C610.473 149.859 610.541 149.756 610.61 149.652C609.725 150.386 608.962 151.255 608.347 152.228C607.171 154.128 606.683 156.359 605.699 158.377C604.51 160.815 597.914 167.618 600.755 170.352C602.13 171.66 605.225 171.123 606.766 170.531C608.829 169.725 610.631 168.183 612.893 167.866C616.332 167.377 619.358 169.863 622.041 172.039C624.723 174.215 628.23 176.349 631.435 175.096C632.976 174.497 634.324 173.147 635.975 173.271C637.625 173.395 638.726 174.903 639.324 176.418C641.202 181.363 639.221 187.347 641.827 191.953C643.368 194.66 646.222 196.354 648.114 198.839C649.344 200.445 650.138 202.343 650.417 204.348C650.92 207.86 649.812 211.406 649.922 214.953C650.149 222.527 656.215 229.117 663.45 231.266C665.631 231.913 668.01 232.257 669.771 233.704C671.745 235.322 672.522 237.938 673.65 240.211C677.378 247.558 686.435 251.745 694.441 249.81L692.845 248.006C685.906 248.109 678.884 244.157 675.713 237.904Z" fill="black"/>
<path opacity="0.1" d="M628.299 206.476C627.398 207.853 624.819 214.905 622.666 221.061C620.651 220.276 618.822 215.27 618.822 215.27L629.565 199.969C630.665 201.484 629.943 203.997 628.299 206.476Z" fill="black"/>
<path d="M628.712 206.063C627.811 207.44 625.232 214.491 623.079 220.648C621.064 219.869 619.234 214.856 619.234 214.856L629.977 199.562C631.078 201.07 630.356 203.591 628.712 206.063Z" fill="#DCE7FF"/>
<path d="M566.25 276.411L560.294 257.605C560.223 257.385 560.197 257.153 560.216 256.923C560.235 256.692 560.3 256.468 560.406 256.262C560.512 256.057 560.658 255.875 560.834 255.726C561.011 255.577 561.215 255.464 561.435 255.395C561.879 255.256 562.359 255.298 562.771 255.513C563.183 255.727 563.494 256.095 563.636 256.538L569.592 275.323L569.001 279.255L566.25 276.411Z" fill="#BE8B87"/>
<path opacity="0.1" d="M560.858 255.952C561.302 255.812 561.783 255.853 562.197 256.067C562.611 256.282 562.923 256.651 563.065 257.096L569.021 275.881L568.574 278.828L569.007 279.282L569.599 275.35L563.609 256.565C563.466 256.123 563.155 255.754 562.743 255.54C562.331 255.326 561.851 255.284 561.408 255.422C561.035 255.543 560.713 255.786 560.493 256.111C560.61 256.048 560.732 255.995 560.858 255.952Z" fill="white"/>
<path d="M566.25 276.411L569.592 275.35L569.104 278.573L569.001 279.282L568.024 278.263L566.25 276.411Z" fill="#EFC8C4"/>
<path d="M568.024 278.263C568.082 278.19 568.155 278.129 568.237 278.084C568.286 278.054 568.342 278.037 568.399 278.037C568.456 278.037 568.512 278.054 568.561 278.084C568.607 278.141 568.647 278.203 568.677 278.27C568.723 278.346 568.785 278.411 568.859 278.46C568.932 278.509 569.016 278.54 569.104 278.553L569.001 279.241L568.024 278.263Z" fill="#727A9C"/>
<path d="M560.259 264.285C560.259 264.285 572.206 264.216 569.393 269.304C566.58 274.393 562.185 275.006 562.185 275.006L560.259 264.285Z" fill="#FFB0B1"/>
<path d="M485.961 35.9081H485.445C464.922 35.9081 446.772 46.7812 436.332 62.8258C425.892 46.7812 407.742 35.9081 387.219 35.9081H386.704C371.302 36.0551 356.58 42.2819 345.738 53.2354C334.896 64.1888 328.81 78.9839 328.801 94.4053C328.801 113.555 337.178 140.728 353.512 163.087C384.633 205.691 436.332 242.965 436.332 242.965C436.332 242.965 488.031 205.698 519.145 163.087C535.486 140.728 543.856 113.555 543.856 94.4053C543.848 78.985 537.762 64.1911 526.922 53.2378C516.081 42.2845 501.361 36.0569 485.961 35.9081ZM478.581 166.365C476.244 166.356 473.964 165.639 472.041 164.31C470.117 162.98 468.64 161.099 467.804 158.914H455.534C454.726 158.909 453.94 158.651 453.285 158.177C452.631 157.703 452.14 157.036 451.882 156.27L448.113 144.901L436.188 186.624C435.956 187.427 435.469 188.133 434.802 188.636C434.135 189.139 433.323 189.411 432.488 189.412H432.247C431.376 189.37 430.545 189.03 429.894 188.448C429.243 187.867 428.811 187.079 428.671 186.217L416.38 112.206L407.398 156.001C407.192 156.833 406.714 157.572 406.04 158.1C405.365 158.628 404.534 158.915 403.677 158.914H386.394C385.876 158.936 385.359 158.853 384.874 158.669C384.389 158.486 383.945 158.206 383.571 157.847C383.197 157.488 382.899 157.056 382.695 156.579C382.492 156.101 382.387 155.587 382.387 155.068C382.387 154.549 382.492 154.035 382.695 153.558C382.899 153.08 383.197 152.649 383.571 152.289C383.945 151.93 384.389 151.65 384.874 151.467C385.359 151.283 385.876 151.2 386.394 151.222H400.651L413.375 92.3395C413.584 91.4689 414.088 90.698 414.802 90.1586C415.516 89.6191 416.394 89.3447 417.288 89.3821C418.181 89.4195 419.034 89.7664 419.7 90.3637C420.366 90.9609 420.805 91.7712 420.94 92.6562L433.492 168.155L444.179 130.826C444.402 130.039 444.873 129.346 445.521 128.85C446.169 128.354 446.96 128.08 447.776 128.071H447.852C448.66 128.072 449.448 128.327 450.103 128.802C450.757 129.277 451.245 129.947 451.497 130.716L458.313 151.243H467.653C468.317 149.223 469.525 147.426 471.145 146.05C472.765 144.675 474.732 143.774 476.831 143.447C478.93 143.12 481.078 143.381 483.038 144.199C484.998 145.018 486.695 146.363 487.94 148.085C489.185 149.808 489.931 151.842 490.094 153.962C490.258 156.082 489.833 158.207 488.867 160.1C487.901 161.994 486.431 163.584 484.62 164.694C482.808 165.805 480.726 166.392 478.602 166.392L478.581 166.365Z" fill="#415A77"/>
</g>
<defs>
<linearGradient id="paint0_linear_4_487" x1="245.569" y1="534.081" x2="245.569" y2="110.353" gradientUnits="userSpaceOnUse">
<stop stop-color="#808080" stop-opacity="0.25"/>
<stop offset="0.54" stop-color="#808080" stop-opacity="0.12"/>
<stop offset="1" stop-color="#808080" stop-opacity="0.1"/>
</linearGradient>
<linearGradient id="paint1_linear_4_487" x1="614.964" y1="528.723" x2="614.964" y2="141.726" gradientUnits="userSpaceOnUse">
<stop stop-color="#808080" stop-opacity="0.25"/>
<stop offset="0.54" stop-color="#808080" stop-opacity="0.12"/>
<stop offset="1" stop-color="#808080" stop-opacity="0.1"/>
</linearGradient>
<clipPath id="clip0_4_487">
<rect width="760" height="539" fill="white" transform="translate(0.5 0.5)"/>
</clipPath>
</defs>
</svg>
